<mxfile host="app.diagrams.net" modified="2021-09-08T07:39:48.232Z" agent="5.0 (Windows NT 10.0; Win64; x64) AppleWebKit/537.36 (KHTML, like Gecko) Chrome/93.0.4577.63 Safari/537.36 Edg/93.0.961.38" etag="gFfx-5SC-anstxNk91yE" version="15.1.1" type="github" pages="2">
  <diagram id="C5RBs43oDa-KdzZeNtuy" name="Page-1">
    <mxGraphModel dx="1021" dy="529" grid="1" gridSize="10" guides="1" tooltips="1" connect="1" arrows="1" fold="1" page="1" pageScale="1" pageWidth="827" pageHeight="1169" math="0" shadow="0">
      <root>
        <mxCell id="WIyWlLk6GJQsqaUBKTNV-0" />
        <mxCell id="WIyWlLk6GJQsqaUBKTNV-1" parent="WIyWlLk6GJQsqaUBKTNV-0" />
        <mxCell id="wEzbV4c2mfcMOiBGI577-0" value="new Object()" style="rounded=0;whiteSpace=wrap;html=1;fillColor=#fff2cc;strokeColor=#d6b656;" parent="WIyWlLk6GJQsqaUBKTNV-1" vertex="1">
          <mxGeometry x="610" y="230" width="170" height="40" as="geometry" />
        </mxCell>
        <mxCell id="wEzbV4c2mfcMOiBGI577-13" style="edgeStyle=orthogonalEdgeStyle;rounded=0;orthogonalLoop=1;jettySize=auto;html=1;exitX=0.5;exitY=0;exitDx=0;exitDy=0;" parent="WIyWlLk6GJQsqaUBKTNV-1" source="wEzbV4c2mfcMOiBGI577-3" edge="1">
          <mxGeometry relative="1" as="geometry">
            <mxPoint x="400" y="150" as="targetPoint" />
          </mxGeometry>
        </mxCell>
        <mxCell id="wEzbV4c2mfcMOiBGI577-3" value="Person prototype" style="swimlane;fontStyle=0;childLayout=stackLayout;horizontal=1;startSize=26;horizontalStack=0;resizeParent=1;resizeParentMax=0;resizeLast=0;collapsible=1;marginBottom=0;fillColor=#d5e8d4;strokeColor=#82b366;" parent="WIyWlLk6GJQsqaUBKTNV-1" vertex="1">
          <mxGeometry x="330" y="134" width="140" height="78" as="geometry" />
        </mxCell>
        <mxCell id="wEzbV4c2mfcMOiBGI577-4" value="constructor" style="text;strokeColor=none;fillColor=none;align=left;verticalAlign=top;spacingLeft=4;spacingRight=4;overflow=hidden;rotatable=0;points=[[0,0.5],[1,0.5]];portConstraint=eastwest;" parent="wEzbV4c2mfcMOiBGI577-3" vertex="1">
          <mxGeometry y="26" width="140" height="26" as="geometry" />
        </mxCell>
        <mxCell id="wEzbV4c2mfcMOiBGI577-6" value="[[protytype]]" style="text;strokeColor=none;fillColor=none;align=left;verticalAlign=top;spacingLeft=4;spacingRight=4;overflow=hidden;rotatable=0;points=[[0,0.5],[1,0.5]];portConstraint=eastwest;" parent="wEzbV4c2mfcMOiBGI577-3" vertex="1">
          <mxGeometry y="52" width="140" height="26" as="geometry" />
        </mxCell>
        <mxCell id="wEzbV4c2mfcMOiBGI577-23" style="edgeStyle=orthogonalEdgeStyle;rounded=0;orthogonalLoop=1;jettySize=auto;html=1;entryX=0;entryY=0.25;entryDx=0;entryDy=0;" parent="WIyWlLk6GJQsqaUBKTNV-1" source="wEzbV4c2mfcMOiBGI577-7" target="wEzbV4c2mfcMOiBGI577-3" edge="1">
          <mxGeometry relative="1" as="geometry" />
        </mxCell>
        <mxCell id="wEzbV4c2mfcMOiBGI577-7" value="new Person()" style="swimlane;fontStyle=0;childLayout=stackLayout;horizontal=1;startSize=26;horizontalStack=0;resizeParent=1;resizeParentMax=0;resizeLast=0;collapsible=1;marginBottom=0;fillColor=#f5f5f5;strokeColor=#666666;fontColor=#333333;" parent="WIyWlLk6GJQsqaUBKTNV-1" vertex="1">
          <mxGeometry x="90" y="160" width="140" height="52" as="geometry" />
        </mxCell>
        <mxCell id="wEzbV4c2mfcMOiBGI577-8" value="[[prototype]]" style="text;strokeColor=none;fillColor=none;align=left;verticalAlign=top;spacingLeft=4;spacingRight=4;overflow=hidden;rotatable=0;points=[[0,0.5],[1,0.5]];portConstraint=eastwest;" parent="wEzbV4c2mfcMOiBGI577-7" vertex="1">
          <mxGeometry y="26" width="140" height="26" as="geometry" />
        </mxCell>
        <mxCell id="wEzbV4c2mfcMOiBGI577-16" style="edgeStyle=orthogonalEdgeStyle;rounded=0;orthogonalLoop=1;jettySize=auto;html=1;entryX=0;entryY=0.5;entryDx=0;entryDy=0;" parent="WIyWlLk6GJQsqaUBKTNV-1" source="wEzbV4c2mfcMOiBGI577-6" target="wEzbV4c2mfcMOiBGI577-0" edge="1">
          <mxGeometry relative="1" as="geometry" />
        </mxCell>
        <mxCell id="wEzbV4c2mfcMOiBGI577-17" value="Function Person(){}" style="swimlane;fontStyle=0;childLayout=stackLayout;horizontal=1;startSize=26;horizontalStack=0;resizeParent=1;resizeParentMax=0;resizeLast=0;collapsible=1;marginBottom=0;fillColor=#e1d5e7;strokeColor=#9673a6;" parent="WIyWlLk6GJQsqaUBKTNV-1" vertex="1">
          <mxGeometry x="330" y="20" width="140" height="52" as="geometry" />
        </mxCell>
        <mxCell id="wEzbV4c2mfcMOiBGI577-20" value="protytype" style="text;strokeColor=none;fillColor=none;align=left;verticalAlign=top;spacingLeft=4;spacingRight=4;overflow=hidden;rotatable=0;points=[[0,0.5],[1,0.5]];portConstraint=eastwest;" parent="wEzbV4c2mfcMOiBGI577-17" vertex="1">
          <mxGeometry y="26" width="140" height="26" as="geometry" />
        </mxCell>
        <mxCell id="wEzbV4c2mfcMOiBGI577-21" style="edgeStyle=orthogonalEdgeStyle;rounded=0;orthogonalLoop=1;jettySize=auto;html=1;entryX=0.5;entryY=0;entryDx=0;entryDy=0;" parent="WIyWlLk6GJQsqaUBKTNV-1" source="wEzbV4c2mfcMOiBGI577-20" target="wEzbV4c2mfcMOiBGI577-3" edge="1">
          <mxGeometry relative="1" as="geometry" />
        </mxCell>
        <mxCell id="wEzbV4c2mfcMOiBGI577-22" style="edgeStyle=orthogonalEdgeStyle;rounded=0;orthogonalLoop=1;jettySize=auto;html=1;entryX=1;entryY=0.25;entryDx=0;entryDy=0;exitX=1;exitY=0.5;exitDx=0;exitDy=0;" parent="WIyWlLk6GJQsqaUBKTNV-1" source="wEzbV4c2mfcMOiBGI577-4" target="wEzbV4c2mfcMOiBGI577-17" edge="1">
          <mxGeometry relative="1" as="geometry">
            <mxPoint x="590" y="80" as="sourcePoint" />
          </mxGeometry>
        </mxCell>
        <mxCell id="wEzbV4c2mfcMOiBGI577-24" value="new Ninja()" style="swimlane;fontStyle=0;childLayout=stackLayout;horizontal=1;startSize=26;horizontalStack=0;resizeParent=1;resizeParentMax=0;resizeLast=0;collapsible=1;marginBottom=0;fillColor=#f5f5f5;strokeColor=#666666;fontColor=#333333;" parent="WIyWlLk6GJQsqaUBKTNV-1" vertex="1">
          <mxGeometry x="90" y="260" width="140" height="52" as="geometry" />
        </mxCell>
        <mxCell id="wEzbV4c2mfcMOiBGI577-25" value="[[prototype]]" style="text;strokeColor=none;fillColor=none;align=left;verticalAlign=top;spacingLeft=4;spacingRight=4;overflow=hidden;rotatable=0;points=[[0,0.5],[1,0.5]];portConstraint=eastwest;" parent="wEzbV4c2mfcMOiBGI577-24" vertex="1">
          <mxGeometry y="26" width="140" height="26" as="geometry" />
        </mxCell>
        <mxCell id="wEzbV4c2mfcMOiBGI577-26" value="Ninja prototype" style="swimlane;fontStyle=0;childLayout=stackLayout;horizontal=1;startSize=26;horizontalStack=0;resizeParent=1;resizeParentMax=0;resizeLast=0;collapsible=1;marginBottom=0;fillColor=#d5e8d4;strokeColor=#82b366;" parent="WIyWlLk6GJQsqaUBKTNV-1" vertex="1">
          <mxGeometry x="330" y="260" width="140" height="78" as="geometry" />
        </mxCell>
        <mxCell id="wEzbV4c2mfcMOiBGI577-28" value="[[protytype]]" style="text;strokeColor=none;fillColor=none;align=left;verticalAlign=top;spacingLeft=4;spacingRight=4;overflow=hidden;rotatable=0;points=[[0,0.5],[1,0.5]];portConstraint=eastwest;" parent="wEzbV4c2mfcMOiBGI577-26" vertex="1">
          <mxGeometry y="26" width="140" height="26" as="geometry" />
        </mxCell>
        <mxCell id="wEzbV4c2mfcMOiBGI577-27" value="constructor" style="text;strokeColor=none;fillColor=none;align=left;verticalAlign=top;spacingLeft=4;spacingRight=4;overflow=hidden;rotatable=0;points=[[0,0.5],[1,0.5]];portConstraint=eastwest;" parent="wEzbV4c2mfcMOiBGI577-26" vertex="1">
          <mxGeometry y="52" width="140" height="26" as="geometry" />
        </mxCell>
        <mxCell id="wEzbV4c2mfcMOiBGI577-29" style="edgeStyle=orthogonalEdgeStyle;rounded=0;orthogonalLoop=1;jettySize=auto;html=1;entryX=0;entryY=0.25;entryDx=0;entryDy=0;" parent="WIyWlLk6GJQsqaUBKTNV-1" source="wEzbV4c2mfcMOiBGI577-25" target="wEzbV4c2mfcMOiBGI577-26" edge="1">
          <mxGeometry relative="1" as="geometry" />
        </mxCell>
        <mxCell id="wEzbV4c2mfcMOiBGI577-30" style="edgeStyle=orthogonalEdgeStyle;rounded=0;orthogonalLoop=1;jettySize=auto;html=1;entryX=0;entryY=0.5;entryDx=0;entryDy=0;" parent="WIyWlLk6GJQsqaUBKTNV-1" source="wEzbV4c2mfcMOiBGI577-28" target="wEzbV4c2mfcMOiBGI577-0" edge="1">
          <mxGeometry relative="1" as="geometry" />
        </mxCell>
        <mxCell id="wEzbV4c2mfcMOiBGI577-31" value="Function Ninja()" style="swimlane;fontStyle=0;childLayout=stackLayout;horizontal=1;startSize=26;horizontalStack=0;resizeParent=1;resizeParentMax=0;resizeLast=0;collapsible=1;marginBottom=0;fillColor=#e1d5e7;strokeColor=#9673a6;" parent="WIyWlLk6GJQsqaUBKTNV-1" vertex="1">
          <mxGeometry x="330" y="410" width="140" height="52" as="geometry" />
        </mxCell>
        <mxCell id="wEzbV4c2mfcMOiBGI577-32" value="protytype" style="text;strokeColor=none;fillColor=none;align=left;verticalAlign=top;spacingLeft=4;spacingRight=4;overflow=hidden;rotatable=0;points=[[0,0.5],[1,0.5]];portConstraint=eastwest;" parent="wEzbV4c2mfcMOiBGI577-31" vertex="1">
          <mxGeometry y="26" width="140" height="26" as="geometry" />
        </mxCell>
        <mxCell id="wEzbV4c2mfcMOiBGI577-35" style="edgeStyle=orthogonalEdgeStyle;rounded=0;orthogonalLoop=1;jettySize=auto;html=1;entryX=0;entryY=0.25;entryDx=0;entryDy=0;" parent="WIyWlLk6GJQsqaUBKTNV-1" source="wEzbV4c2mfcMOiBGI577-27" target="wEzbV4c2mfcMOiBGI577-31" edge="1">
          <mxGeometry relative="1" as="geometry" />
        </mxCell>
        <mxCell id="wEzbV4c2mfcMOiBGI577-38" style="edgeStyle=orthogonalEdgeStyle;rounded=0;orthogonalLoop=1;jettySize=auto;html=1;exitX=1;exitY=0.5;exitDx=0;exitDy=0;" parent="WIyWlLk6GJQsqaUBKTNV-1" source="wEzbV4c2mfcMOiBGI577-32" target="wEzbV4c2mfcMOiBGI577-26" edge="1">
          <mxGeometry relative="1" as="geometry" />
        </mxCell>
      </root>
    </mxGraphModel>
  </diagram>
  <diagram id="IjcXekp6hvUjU1ankkQ4" name="Page-2">
    <mxGraphModel dx="1848" dy="529" grid="1" gridSize="10" guides="1" tooltips="1" connect="1" arrows="1" fold="1" page="1" pageScale="1" pageWidth="827" pageHeight="1169" math="0" shadow="0">
      <root>
        <mxCell id="RxJcSOsboVDE_yj4gXBQ-0" />
        <mxCell id="RxJcSOsboVDE_yj4gXBQ-1" parent="RxJcSOsboVDE_yj4gXBQ-0" />
        <mxCell id="LejQFjgXsP5sYcSsEZQc-0" value="new Object()" style="rounded=0;whiteSpace=wrap;html=1;fillColor=#fff2cc;strokeColor=#d6b656;" vertex="1" parent="RxJcSOsboVDE_yj4gXBQ-1">
          <mxGeometry x="610" y="230" width="170" height="40" as="geometry" />
        </mxCell>
        <mxCell id="LejQFjgXsP5sYcSsEZQc-1" style="edgeStyle=orthogonalEdgeStyle;rounded=0;orthogonalLoop=1;jettySize=auto;html=1;exitX=0.5;exitY=0;exitDx=0;exitDy=0;" edge="1" parent="RxJcSOsboVDE_yj4gXBQ-1" source="LejQFjgXsP5sYcSsEZQc-2">
          <mxGeometry relative="1" as="geometry">
            <mxPoint x="400" y="150" as="targetPoint" />
          </mxGeometry>
        </mxCell>
        <mxCell id="LejQFjgXsP5sYcSsEZQc-2" value="Person prototype" style="swimlane;fontStyle=0;childLayout=stackLayout;horizontal=1;startSize=26;horizontalStack=0;resizeParent=1;resizeParentMax=0;resizeLast=0;collapsible=1;marginBottom=0;fillColor=#d5e8d4;strokeColor=#82b366;" vertex="1" parent="RxJcSOsboVDE_yj4gXBQ-1">
          <mxGeometry x="330" y="134" width="140" height="78" as="geometry" />
        </mxCell>
        <mxCell id="LejQFjgXsP5sYcSsEZQc-3" value="constructor" style="text;strokeColor=none;fillColor=none;align=left;verticalAlign=top;spacingLeft=4;spacingRight=4;overflow=hidden;rotatable=0;points=[[0,0.5],[1,0.5]];portConstraint=eastwest;" vertex="1" parent="LejQFjgXsP5sYcSsEZQc-2">
          <mxGeometry y="26" width="140" height="26" as="geometry" />
        </mxCell>
        <mxCell id="LejQFjgXsP5sYcSsEZQc-4" value="[[protytype]]" style="text;strokeColor=none;fillColor=none;align=left;verticalAlign=top;spacingLeft=4;spacingRight=4;overflow=hidden;rotatable=0;points=[[0,0.5],[1,0.5]];portConstraint=eastwest;" vertex="1" parent="LejQFjgXsP5sYcSsEZQc-2">
          <mxGeometry y="52" width="140" height="26" as="geometry" />
        </mxCell>
        <mxCell id="LejQFjgXsP5sYcSsEZQc-5" style="edgeStyle=orthogonalEdgeStyle;rounded=0;orthogonalLoop=1;jettySize=auto;html=1;entryX=0;entryY=0.25;entryDx=0;entryDy=0;" edge="1" parent="RxJcSOsboVDE_yj4gXBQ-1" source="LejQFjgXsP5sYcSsEZQc-6" target="LejQFjgXsP5sYcSsEZQc-2">
          <mxGeometry relative="1" as="geometry">
            <Array as="points">
              <mxPoint x="280" y="220" />
              <mxPoint x="280" y="153" />
            </Array>
          </mxGeometry>
        </mxCell>
        <mxCell id="LejQFjgXsP5sYcSsEZQc-6" value="new Person()" style="swimlane;fontStyle=0;childLayout=stackLayout;horizontal=1;startSize=26;horizontalStack=0;resizeParent=1;resizeParentMax=0;resizeLast=0;collapsible=1;marginBottom=0;fillColor=#f5f5f5;strokeColor=#666666;fontColor=#333333;" vertex="1" parent="RxJcSOsboVDE_yj4gXBQ-1">
          <mxGeometry x="90" y="160" width="140" height="74" as="geometry" />
        </mxCell>
        <mxCell id="LejQFjgXsP5sYcSsEZQc-50" value="constructor" style="text;strokeColor=none;fillColor=none;align=left;verticalAlign=top;spacingLeft=4;spacingRight=4;overflow=hidden;rotatable=0;points=[[0,0.5],[1,0.5]];portConstraint=eastwest;" vertex="1" parent="LejQFjgXsP5sYcSsEZQc-6">
          <mxGeometry y="26" width="140" height="24" as="geometry" />
        </mxCell>
        <mxCell id="LejQFjgXsP5sYcSsEZQc-7" value="[[prototype]]" style="text;strokeColor=none;fillColor=none;align=left;verticalAlign=top;spacingLeft=4;spacingRight=4;overflow=hidden;rotatable=0;points=[[0,0.5],[1,0.5]];portConstraint=eastwest;" vertex="1" parent="LejQFjgXsP5sYcSsEZQc-6">
          <mxGeometry y="50" width="140" height="24" as="geometry" />
        </mxCell>
        <mxCell id="LejQFjgXsP5sYcSsEZQc-8" style="edgeStyle=orthogonalEdgeStyle;rounded=0;orthogonalLoop=1;jettySize=auto;html=1;entryX=0;entryY=0.5;entryDx=0;entryDy=0;" edge="1" parent="RxJcSOsboVDE_yj4gXBQ-1" source="LejQFjgXsP5sYcSsEZQc-4" target="LejQFjgXsP5sYcSsEZQc-0">
          <mxGeometry relative="1" as="geometry" />
        </mxCell>
        <mxCell id="LejQFjgXsP5sYcSsEZQc-9" value="Function Person(){}" style="swimlane;fontStyle=0;childLayout=stackLayout;horizontal=1;startSize=26;horizontalStack=0;resizeParent=1;resizeParentMax=0;resizeLast=0;collapsible=1;marginBottom=0;fillColor=#e1d5e7;strokeColor=#9673a6;" vertex="1" parent="RxJcSOsboVDE_yj4gXBQ-1">
          <mxGeometry x="330" y="20" width="140" height="52" as="geometry" />
        </mxCell>
        <mxCell id="LejQFjgXsP5sYcSsEZQc-10" value="protytype" style="text;strokeColor=none;fillColor=none;align=left;verticalAlign=top;spacingLeft=4;spacingRight=4;overflow=hidden;rotatable=0;points=[[0,0.5],[1,0.5]];portConstraint=eastwest;" vertex="1" parent="LejQFjgXsP5sYcSsEZQc-9">
          <mxGeometry y="26" width="140" height="26" as="geometry" />
        </mxCell>
        <mxCell id="LejQFjgXsP5sYcSsEZQc-11" style="edgeStyle=orthogonalEdgeStyle;rounded=0;orthogonalLoop=1;jettySize=auto;html=1;entryX=0.5;entryY=0;entryDx=0;entryDy=0;" edge="1" parent="RxJcSOsboVDE_yj4gXBQ-1" source="LejQFjgXsP5sYcSsEZQc-10" target="LejQFjgXsP5sYcSsEZQc-2">
          <mxGeometry relative="1" as="geometry" />
        </mxCell>
        <mxCell id="LejQFjgXsP5sYcSsEZQc-12" style="edgeStyle=orthogonalEdgeStyle;rounded=0;orthogonalLoop=1;jettySize=auto;html=1;entryX=1;entryY=0.25;entryDx=0;entryDy=0;exitX=1;exitY=0.5;exitDx=0;exitDy=0;" edge="1" parent="RxJcSOsboVDE_yj4gXBQ-1" source="LejQFjgXsP5sYcSsEZQc-3" target="LejQFjgXsP5sYcSsEZQc-9">
          <mxGeometry relative="1" as="geometry">
            <mxPoint x="590" y="80" as="sourcePoint" />
          </mxGeometry>
        </mxCell>
        <mxCell id="LejQFjgXsP5sYcSsEZQc-13" value="new Ninja()" style="swimlane;fontStyle=0;childLayout=stackLayout;horizontal=1;startSize=26;horizontalStack=0;resizeParent=1;resizeParentMax=0;resizeLast=0;collapsible=1;marginBottom=0;fillColor=#f5f5f5;strokeColor=#666666;fontColor=#333333;" vertex="1" parent="RxJcSOsboVDE_yj4gXBQ-1">
          <mxGeometry x="-180" y="160" width="140" height="52" as="geometry" />
        </mxCell>
        <mxCell id="LejQFjgXsP5sYcSsEZQc-14" value="[[prototype]]" style="text;strokeColor=none;fillColor=none;align=left;verticalAlign=top;spacingLeft=4;spacingRight=4;overflow=hidden;rotatable=0;points=[[0,0.5],[1,0.5]];portConstraint=eastwest;" vertex="1" parent="LejQFjgXsP5sYcSsEZQc-13">
          <mxGeometry y="26" width="140" height="26" as="geometry" />
        </mxCell>
        <mxCell id="LejQFjgXsP5sYcSsEZQc-20" value="Function Ninja()" style="swimlane;fontStyle=0;childLayout=stackLayout;horizontal=1;startSize=26;horizontalStack=0;resizeParent=1;resizeParentMax=0;resizeLast=0;collapsible=1;marginBottom=0;fillColor=#e1d5e7;strokeColor=#9673a6;" vertex="1" parent="RxJcSOsboVDE_yj4gXBQ-1">
          <mxGeometry x="90" y="20" width="140" height="52" as="geometry" />
        </mxCell>
        <mxCell id="LejQFjgXsP5sYcSsEZQc-21" value="protytype" style="text;strokeColor=none;fillColor=none;align=left;verticalAlign=top;spacingLeft=4;spacingRight=4;overflow=hidden;rotatable=0;points=[[0,0.5],[1,0.5]];portConstraint=eastwest;" vertex="1" parent="LejQFjgXsP5sYcSsEZQc-20">
          <mxGeometry y="26" width="140" height="26" as="geometry" />
        </mxCell>
        <mxCell id="LejQFjgXsP5sYcSsEZQc-48" style="edgeStyle=orthogonalEdgeStyle;rounded=0;orthogonalLoop=1;jettySize=auto;html=1;exitX=0;exitY=0.5;exitDx=0;exitDy=0;entryX=0.5;entryY=0;entryDx=0;entryDy=0;" edge="1" parent="RxJcSOsboVDE_yj4gXBQ-1" source="LejQFjgXsP5sYcSsEZQc-21" target="LejQFjgXsP5sYcSsEZQc-6">
          <mxGeometry relative="1" as="geometry" />
        </mxCell>
        <mxCell id="LejQFjgXsP5sYcSsEZQc-49" style="edgeStyle=orthogonalEdgeStyle;rounded=0;orthogonalLoop=1;jettySize=auto;html=1;entryX=0;entryY=0.25;entryDx=0;entryDy=0;" edge="1" parent="RxJcSOsboVDE_yj4gXBQ-1" source="LejQFjgXsP5sYcSsEZQc-14" target="LejQFjgXsP5sYcSsEZQc-6">
          <mxGeometry relative="1" as="geometry" />
        </mxCell>
      </root>
    </mxGraphModel>
  </diagram>
</mxfile>
